<svg xmlns="http://www.w3.org/2000/svg" width="61" height="60" viewBox="0 0 61 60" fill="none">
<circle cx="30.02" cy="30" r="30" fill="#1AC6FF"/>
<path d="M43.8891 26.0006C43.6224 25.4513 43.0636 25.1064 42.454 25.1064H34.3257L37.3484 15.4626C37.6024 14.9644 37.577 14.364 37.2722 13.8914C36.9801 13.4188 36.4594 13.125 35.9006 13.125H25.6894C24.3686 13.125 23.1747 13.9553 22.7175 15.2071L18.0057 32.4895C17.7517 32.9876 17.7771 33.588 18.0819 34.0606C18.374 34.5332 18.8947 34.827 19.4535 34.827H27.5945L24.7878 46.7957C24.6354 47.5365 25.0037 48.2901 25.6895 48.6095C25.9054 48.7117 26.134 48.75 26.3626 48.75C26.8579 48.75 27.3405 48.5201 27.658 48.0985L43.7621 27.6867C44.1304 27.2013 44.1812 26.5371 43.9145 25.9878L43.8891 26.0006Z" fill="white"/>
</svg>