<svg width="513" height="296" viewBox="0 0 513 296" fill="none" xmlns="http://www.w3.org/2000/svg">
<g style="mix-blend-mode:luminosity">
<path fill-rule="evenodd" clip-rule="evenodd" d="M273.26 276.328C273.754 276.239 274.248 276.128 274.742 275.994C275.801 275.816 276.86 275.393 277.919 274.725C278.978 274.101 280.108 273.277 281.308 272.252C282.438 271.183 283.603 269.913 284.803 268.443C286.003 266.972 286.603 266.237 286.603 266.237C286.603 266.237 287.203 265.324 288.403 263.497C289.603 261.626 290.804 259.621 292.004 257.483C293.204 255.344 294.369 253.05 295.498 250.599C296.628 248.149 297.757 245.565 298.887 242.847C299.946 240.13 300.476 238.771 300.476 238.771C300.476 238.771 300.758 238.013 301.323 236.499C301.817 234.984 302.346 233.447 302.911 231.887C303.405 230.328 303.9 228.746 304.394 227.143C304.888 225.539 305.382 223.913 305.876 222.264C306.3 220.571 306.512 219.725 306.512 219.725C306.512 219.725 306.759 218.856 307.253 217.118C307.677 215.336 308.1 213.532 308.524 211.705C308.947 209.923 309.371 208.119 309.794 206.292C310.147 204.465 310.5 202.616 310.853 200.745C311.206 198.874 311.383 197.938 311.383 197.938C311.383 197.938 311.559 196.958 311.912 194.998C312.265 192.993 312.583 190.988 312.866 188.983C313.148 186.979 313.395 184.974 313.607 182.969C313.889 180.964 314.136 178.937 314.348 176.887C314.56 174.883 314.666 173.88 314.666 173.88C314.666 173.88 314.736 172.811 314.878 170.672C315.089 168.489 315.231 166.329 315.301 164.19C315.442 162.007 315.548 159.846 315.619 157.708C315.689 155.569 315.76 153.408 315.831 151.225C315.831 149.087 315.831 146.948 315.831 144.81C315.76 142.627 315.689 140.466 315.619 138.327C315.548 136.189 315.442 134.028 315.301 131.845C315.231 129.706 315.089 127.546 314.878 125.363C314.736 123.224 314.666 122.155 314.666 122.155C314.666 122.155 314.56 121.152 314.348 119.148C314.136 117.098 313.889 115.071 313.607 113.066C313.395 111.061 313.148 109.056 312.866 107.052C312.583 105.047 312.265 103.042 311.912 101.037C311.559 99.0767 311.383 98.0965 311.383 98.0965C311.383 98.0965 311.206 97.1609 310.853 95.2897C310.5 93.4185 310.147 91.5696 309.794 89.7429C309.371 87.9163 308.947 86.1119 308.524 84.3298C308.1 82.5032 307.677 80.6988 307.253 78.9167C306.759 77.1792 306.512 76.3104 306.512 76.3104C306.512 76.3104 306.3 75.4639 305.876 73.7709C305.382 72.1225 304.888 70.4963 304.394 68.8924C303.9 67.2885 303.405 65.7069 302.911 64.1476C302.346 62.5882 301.817 61.0512 301.323 59.5364C300.758 58.0216 300.476 57.2642 300.476 57.2642C300.476 57.2642 299.946 55.9054 298.887 53.1877C297.757 50.47 296.628 47.8859 295.498 45.4356C294.369 42.9852 293.204 40.6907 292.004 38.5522C290.804 36.4137 289.603 34.4088 288.403 32.5376C287.203 30.711 286.603 29.7977 286.603 29.7977C286.603 29.7977 286.003 29.0625 284.803 27.5923C283.603 26.1221 282.438 24.8523 281.308 23.7831C280.108 22.7584 278.978 21.9342 277.919 21.3104C276.86 20.6421 275.307 20.1075 273.26 19.7065C275.166 20.1075 276.578 20.6421 277.496 21.3104C278.484 21.9342 279.437 22.7584 280.355 23.7831C281.273 24.8523 282.191 26.1221 283.108 27.5923C283.956 29.0625 284.379 29.7977 284.379 29.7977C284.379 29.7977 284.803 30.711 285.65 32.5376C286.497 34.3197 287.309 36.28 288.086 38.4186C288.862 40.5125 289.639 42.807 290.415 45.3019C291.121 47.7523 291.827 50.3809 292.533 53.1877C293.239 55.9499 293.592 57.3311 293.592 57.3311C293.592 57.3311 293.91 58.8681 294.545 61.9422C295.181 65.0163 295.745 68.2018 296.24 71.4987C296.804 74.7956 297.334 78.2039 297.828 81.7235C298.322 85.1986 298.746 88.8073 299.099 92.5497C299.522 96.2921 299.734 98.1633 299.734 98.1633C299.734 98.1633 299.84 99.1435 300.052 101.104C300.193 103.064 300.334 105.024 300.476 106.985C300.617 108.99 300.758 110.994 300.899 112.999C301.04 115.049 301.146 117.098 301.217 119.148C301.358 121.197 301.429 122.222 301.429 122.222C301.429 122.222 301.464 123.291 301.534 125.429C301.605 127.523 301.676 129.64 301.746 131.778C301.817 133.961 301.887 136.122 301.958 138.261C301.958 140.399 301.958 142.56 301.958 144.743C301.958 146.926 301.958 149.109 301.958 151.292C301.958 153.475 301.958 155.636 301.958 157.774C301.887 159.913 301.817 162.074 301.746 164.257C301.676 166.395 301.605 168.512 301.534 170.606C301.464 172.744 301.429 173.813 301.429 173.813C301.429 173.813 301.358 174.838 301.217 176.887C301.146 178.937 301.04 180.986 300.899 183.036C300.758 185.041 300.617 187.045 300.476 189.05C300.334 191.011 300.193 192.971 300.052 194.931C299.84 196.891 299.734 197.872 299.734 197.872C299.734 197.872 299.522 199.743 299.099 203.485C298.746 207.228 298.322 210.836 297.828 214.311C297.334 217.831 296.804 221.239 296.24 224.536C295.745 227.833 295.181 231.019 294.545 234.093C293.91 237.167 293.592 238.704 293.592 238.704C293.592 238.704 293.239 240.085 292.533 242.847C291.827 245.654 291.121 248.283 290.415 250.733C289.639 253.228 288.862 255.522 288.086 257.616C287.309 259.755 286.497 261.715 285.65 263.497C284.803 265.324 284.379 266.237 284.379 266.237C284.379 266.237 283.956 266.972 283.108 268.443C282.191 269.913 281.273 271.183 280.355 272.252C279.437 273.277 278.484 274.101 277.496 274.725C276.578 275.393 275.625 275.816 274.637 275.994C273.719 276.217 273.26 276.328 273.26 276.328ZM273.26 276.328C273.684 276.239 274.142 276.128 274.637 275.994C275.625 275.816 276.578 275.393 277.496 274.725C278.484 274.101 279.437 273.277 280.355 272.252C281.273 271.183 282.191 269.913 283.108 268.443C283.956 266.972 284.379 266.237 284.379 266.237C284.379 266.237 284.803 265.324 285.65 263.497C286.497 261.715 287.309 259.755 288.086 257.616C288.862 255.522 289.639 253.228 290.415 250.733C291.121 248.283 291.827 245.654 292.533 242.847C293.239 240.085 293.592 238.704 293.592 238.704C293.592 238.704 293.91 237.167 294.545 234.093C295.181 231.019 295.745 227.833 296.24 224.536C296.804 221.239 297.334 217.831 297.828 214.311C298.322 210.836 298.746 207.228 299.099 203.485C299.522 199.743 299.734 197.872 299.734 197.872C299.734 197.872 299.84 196.891 300.052 194.931C300.193 192.971 300.334 191.011 300.476 189.05C300.617 187.045 300.758 185.041 300.899 183.036C301.04 180.986 301.146 178.937 301.217 176.887C301.358 174.838 301.429 173.813 301.429 173.813C301.429 173.813 301.464 172.744 301.534 170.606C301.605 168.512 301.676 166.395 301.746 164.257C301.817 162.074 301.887 159.913 301.958 157.774C301.958 155.636 301.958 153.475 301.958 151.292C301.958 149.109 301.958 146.926 301.958 144.743C301.958 142.56 301.958 140.399 301.958 138.261C301.887 136.122 301.817 133.961 301.746 131.778C301.676 129.64 301.605 127.523 301.534 125.429C301.464 123.291 301.429 122.222 301.429 122.222C301.429 122.222 301.358 121.197 301.217 119.148C301.146 117.098 301.04 115.049 300.899 112.999C300.758 110.994 300.617 108.99 300.476 106.985C300.334 105.024 300.193 103.064 300.052 101.104C299.84 99.1435 299.734 98.1633 299.734 98.1633C299.734 98.1633 299.522 96.2921 299.099 92.5497C298.746 88.8073 298.322 85.1986 297.828 81.7235C297.334 78.2039 296.804 74.7956 296.24 71.4987C295.745 68.2018 295.181 65.0163 294.545 61.9422C293.91 58.8681 293.592 57.3311 293.592 57.3311C293.592 57.3311 293.239 55.9499 292.533 53.1877C291.827 50.3809 291.121 47.7523 290.415 45.3019C289.639 42.807 288.862 40.5125 288.086 38.4186C287.309 36.28 286.497 34.3197 285.65 32.5376C284.803 30.711 284.379 29.7977 284.379 29.7977C284.379 29.7977 283.956 29.0625 283.108 27.5923C282.191 26.1221 281.273 24.8523 280.355 23.7831C279.437 22.7584 278.484 21.9342 277.496 21.3104C276.578 20.6421 275.625 20.2189 274.637 20.0407C273.719 19.8179 273.26 19.7065 273.26 19.7065C273.26 19.7065 268.389 19.7065 258.646 19.7065C260.411 20.6421 261.752 21.5332 262.67 22.3797C263.517 23.2262 264.4 24.2732 265.318 25.5206C266.165 26.7235 267.012 28.1269 267.859 29.7308C268.706 31.3347 269.13 32.1367 269.13 32.1367C269.13 32.1367 269.518 33.0945 270.295 35.0103C271.071 36.8815 271.813 38.9086 272.519 41.0917C273.225 43.2748 273.931 45.6138 274.637 48.1087C275.343 50.5591 276.013 53.1877 276.649 55.9945C277.284 58.7567 277.602 60.1379 277.602 60.1379C277.602 60.1379 277.884 61.6526 278.449 64.6822C279.014 67.7118 279.543 70.8304 280.037 74.0382C280.532 77.2905 281.026 80.632 281.52 84.0625C281.943 87.4485 282.332 90.9458 282.685 94.5546C283.038 98.1633 283.214 99.9677 283.214 99.9677C283.214 99.9677 283.32 100.926 283.532 102.841C283.673 104.713 283.814 106.628 283.956 108.589C284.097 110.504 284.203 112.42 284.273 114.336C284.414 116.296 284.556 118.256 284.697 120.217C284.767 122.222 284.803 123.224 284.803 123.224C284.803 123.224 284.838 124.249 284.909 126.298C284.979 128.348 285.05 130.397 285.12 132.446C285.191 134.496 285.226 136.568 285.226 138.661C285.297 140.711 285.332 142.783 285.332 144.877C285.332 146.971 285.332 149.064 285.332 151.158C285.332 153.252 285.297 155.324 285.226 157.373C285.226 159.467 285.191 161.539 285.12 163.589C285.05 165.638 284.979 167.687 284.909 169.737C284.838 171.786 284.803 172.811 284.803 172.811C284.803 172.811 284.732 173.791 284.591 175.751C284.52 177.756 284.414 179.717 284.273 181.632C284.132 183.593 283.991 185.531 283.85 187.446C283.708 189.362 283.567 191.278 283.426 193.194C283.214 195.109 283.108 196.067 283.108 196.067C283.108 196.067 282.932 197.849 282.579 201.414C282.155 205.022 281.732 208.542 281.308 211.972C280.814 215.403 280.32 218.722 279.826 221.93C279.261 225.138 278.696 228.279 278.131 231.353C277.496 234.382 277.178 235.897 277.178 235.897C277.178 235.897 276.86 237.278 276.225 240.04C275.59 242.803 274.919 245.431 274.213 247.926C273.507 250.421 272.766 252.76 271.989 254.943C271.213 257.126 270.436 259.153 269.659 261.025C268.883 262.94 268.495 263.898 268.495 263.898C268.495 263.898 268.071 264.7 267.224 266.304C266.377 267.908 265.494 269.311 264.576 270.514C263.729 271.762 262.847 272.809 261.929 273.655C261.082 274.502 260.199 275.148 259.281 275.593C258.364 276.083 257.905 276.328 257.905 276.328C257.905 276.328 260.446 276.328 265.529 276.328C270.683 276.328 273.26 276.328 273.26 276.328ZM285.332 148.017C285.332 149.042 285.332 150.089 285.332 151.158C285.332 153.252 285.297 155.324 285.226 157.373C285.226 159.467 285.191 161.539 285.12 163.589C285.05 165.638 284.979 167.687 284.909 169.737C284.838 171.786 284.803 172.811 284.803 172.811C284.803 172.811 284.732 173.791 284.591 175.751C284.52 177.756 284.414 179.717 284.273 181.632C284.132 183.593 283.991 185.531 283.85 187.446C283.708 189.362 283.567 191.278 283.426 193.194C283.214 195.109 283.108 196.067 283.108 196.067C283.108 196.067 282.932 197.849 282.579 201.414C282.155 205.022 281.732 208.542 281.308 211.972C280.814 215.403 280.32 218.722 279.826 221.93C279.261 225.138 278.696 228.279 278.131 231.353C277.496 234.382 277.178 235.897 277.178 235.897C277.178 235.897 276.86 237.278 276.225 240.04C275.59 242.803 274.919 245.431 274.213 247.926C273.507 250.421 272.766 252.76 271.989 254.943C271.213 257.126 270.436 259.153 269.659 261.025C268.883 262.94 268.495 263.898 268.495 263.898C268.495 263.898 268.071 264.7 267.224 266.304C266.377 267.908 265.494 269.311 264.576 270.514C263.729 271.762 262.847 272.809 261.929 273.655C261.082 274.502 260.199 275.148 259.281 275.593C258.364 276.083 257.905 276.328 257.905 276.328C257.905 276.328 257.693 276.328 257.269 276.328C256.846 276.328 256.105 276.217 255.046 275.994C254.057 275.816 252.998 275.393 251.869 274.725C250.81 274.101 249.715 273.277 248.586 272.252C247.456 271.183 246.291 269.913 245.091 268.443C243.891 266.972 243.291 266.237 243.291 266.237C243.291 266.237 242.691 265.324 241.491 263.497C240.22 261.626 239.02 259.621 237.89 257.483C236.69 255.344 235.525 253.05 234.396 250.599C233.266 248.149 232.172 245.565 231.113 242.847C229.983 240.13 229.418 238.771 229.418 238.771C229.418 238.771 229.136 238.013 228.571 236.499C228.077 234.984 227.548 233.447 226.983 231.887C226.489 230.328 225.994 228.746 225.5 227.143C225.006 225.539 224.547 223.913 224.124 222.264C223.629 220.571 223.382 219.725 223.382 219.725C223.382 219.725 223.17 218.856 222.747 217.118C222.253 215.336 221.794 213.532 221.37 211.705C220.947 209.923 220.558 208.119 220.205 206.292C219.782 204.465 219.393 202.616 219.04 200.745C218.758 198.874 218.617 197.938 218.617 197.938C218.617 197.938 218.44 196.958 218.087 194.998C217.734 192.993 217.417 190.988 217.134 188.983C216.852 186.979 216.57 184.974 216.287 182.969C216.075 180.964 215.864 178.937 215.652 176.887C215.44 174.883 215.334 173.88 215.334 173.88C215.334 173.88 215.263 172.811 215.122 170.672C214.91 168.489 214.734 166.329 214.593 164.19C214.522 162.007 214.452 159.846 214.381 157.708C214.31 155.569 214.24 153.408 214.169 151.225C214.169 149.087 214.169 146.948 214.169 144.81C214.24 142.627 214.31 140.466 214.381 138.327C214.452 136.189 214.522 134.028 214.593 131.845C214.734 129.706 214.91 127.546 215.122 125.363C215.263 123.224 215.334 122.155 215.334 122.155C215.334 122.155 215.44 121.152 215.652 119.148C215.864 117.098 216.075 115.071 216.287 113.066C216.57 111.061 216.852 109.056 217.134 107.052C217.417 105.047 217.734 103.042 218.087 101.037C218.44 99.0767 218.617 98.0965 218.617 98.0965C218.617 98.0965 218.758 97.1609 219.04 95.2897C219.393 93.4185 219.782 91.5696 220.205 89.7429C220.558 87.9163 220.947 86.1119 221.37 84.3298C221.794 82.5032 222.253 80.6988 222.747 78.9167C223.17 77.1792 223.382 76.3104 223.382 76.3104C223.382 76.3104 223.629 75.4639 224.124 73.7709C224.547 72.1225 225.006 70.4963 225.5 68.8924C225.994 67.2885 226.489 65.7069 226.983 64.1476C227.548 62.5882 228.077 61.0512 228.571 59.5364C229.136 58.0216 229.418 57.2642 229.418 57.2642C229.418 57.2642 229.983 55.9054 231.113 53.1877C232.172 50.47 233.266 47.8859 234.396 45.4356C235.525 42.9852 236.69 40.6907 237.89 38.5522C239.02 36.4137 240.22 34.4088 241.491 32.5376C242.691 30.711 243.291 29.7977 243.291 29.7977C243.291 29.7977 243.891 29.0625 245.091 27.5923C246.291 26.1221 247.456 24.8523 248.586 23.7831C249.715 22.7584 250.81 21.9342 251.869 21.3104C252.998 20.6421 254.057 20.2189 255.046 20.0407C256.105 19.8179 256.634 19.7065 256.634 19.7065C256.634 19.7065 256.952 19.7065 257.587 19.7065C258.293 19.7065 259.07 19.9516 259.917 20.4417C260.835 20.8872 261.752 21.5332 262.67 22.3797C263.517 23.2262 264.4 24.2732 265.318 25.5206C266.165 26.7235 267.012 28.1269 267.859 29.7308C268.706 31.3347 269.13 32.1367 269.13 32.1367C269.13 32.1367 269.518 33.0945 270.295 35.0103C271.071 36.8815 271.813 38.9086 272.519 41.0917C273.225 43.2748 273.931 45.6138 274.637 48.1087C275.343 50.5591 276.013 53.1877 276.649 55.9945C277.284 58.7567 277.602 60.1379 277.602 60.1379C277.602 60.1379 277.884 61.6526 278.449 64.6822C279.014 67.7118 279.543 70.8304 280.037 74.0382C280.532 77.2905 281.026 80.632 281.52 84.0625C281.943 87.4485 282.332 90.9458 282.685 94.5546C283.038 98.1633 283.214 99.9677 283.214 99.9677C283.214 99.9677 283.32 100.926 283.532 102.841C283.673 104.713 283.814 106.628 283.956 108.589C284.097 110.504 284.238 112.42 284.379 114.336C284.45 116.296 284.556 118.256 284.697 120.217C284.767 122.222 284.803 123.224 284.803 123.224C284.803 123.224 284.838 124.249 284.909 126.298C284.979 128.348 285.05 130.397 285.12 132.446C285.191 134.496 285.226 136.568 285.226 138.661C285.297 140.711 285.332 142.783 285.332 144.877C285.332 146.971 285.332 148.017 285.332 148.017Z" fill="#F0EFEE"/>
<path d="M273.26 276.328C273.754 276.239 274.248 276.128 274.742 275.994C275.801 275.816 276.86 275.393 277.919 274.725C278.978 274.101 280.108 273.277 281.308 272.252C282.438 271.183 283.603 269.913 284.803 268.443C286.003 266.972 286.603 266.237 286.603 266.237C286.603 266.237 287.203 265.324 288.403 263.497C289.603 261.626 290.804 259.621 292.004 257.483C293.204 255.344 294.369 253.05 295.498 250.599C296.628 248.149 297.757 245.565 298.887 242.847C299.946 240.13 300.476 238.771 300.476 238.771C300.476 238.771 300.758 238.013 301.323 236.499C301.817 234.984 302.346 233.447 302.911 231.887C303.405 230.328 303.9 228.746 304.394 227.143C304.888 225.539 305.382 223.913 305.876 222.264C306.3 220.571 306.512 219.725 306.512 219.725C306.512 219.725 306.759 218.856 307.253 217.118C307.677 215.336 308.1 213.532 308.524 211.705C308.947 209.923 309.371 208.119 309.794 206.292C310.147 204.465 310.5 202.616 310.853 200.745C311.206 198.874 311.383 197.938 311.383 197.938C311.383 197.938 311.559 196.958 311.912 194.998C312.265 192.993 312.583 190.988 312.866 188.983C313.148 186.979 313.395 184.974 313.607 182.969C313.889 180.964 314.136 178.937 314.348 176.887C314.56 174.883 314.666 173.88 314.666 173.88C314.666 173.88 314.736 172.811 314.878 170.672C315.089 168.489 315.231 166.329 315.301 164.19C315.442 162.007 315.548 159.846 315.619 157.708C315.689 155.569 315.76 153.408 315.831 151.225C315.831 149.087 315.831 146.948 315.831 144.81C315.76 142.627 315.689 140.466 315.619 138.327C315.548 136.189 315.442 134.028 315.301 131.845C315.231 129.706 315.089 127.546 314.878 125.363C314.736 123.224 314.666 122.155 314.666 122.155C314.666 122.155 314.56 121.152 314.348 119.148C314.136 117.098 313.889 115.071 313.607 113.066C313.395 111.061 313.148 109.056 312.866 107.052C312.583 105.047 312.265 103.042 311.912 101.037C311.559 99.0767 311.383 98.0965 311.383 98.0965C311.383 98.0965 311.206 97.1609 310.853 95.2897C310.5 93.4185 310.147 91.5696 309.794 89.7429C309.371 87.9163 308.947 86.1119 308.524 84.3298C308.1 82.5032 307.677 80.6988 307.253 78.9167C306.759 77.1792 306.512 76.3104 306.512 76.3104C306.512 76.3104 306.3 75.4639 305.876 73.7709C305.382 72.1225 304.888 70.4963 304.394 68.8924C303.9 67.2885 303.405 65.7069 302.911 64.1476C302.346 62.5882 301.817 61.0512 301.323 59.5364C300.758 58.0216 300.476 57.2642 300.476 57.2642C300.476 57.2642 299.946 55.9054 298.887 53.1877C297.757 50.47 296.628 47.8859 295.498 45.4356C294.369 42.9852 293.204 40.6907 292.004 38.5522C290.804 36.4137 289.603 34.4088 288.403 32.5376C287.203 30.711 286.603 29.7977 286.603 29.7977C286.603 29.7977 286.003 29.0625 284.803 27.5923C283.603 26.1221 282.438 24.8523 281.308 23.7831C280.108 22.7584 278.978 21.9342 277.919 21.3104C276.86 20.6421 275.307 20.1075 273.26 19.7065M273.26 276.328C273.26 276.328 273.719 276.217 274.637 275.994M273.26 276.328C273.684 276.239 274.142 276.128 274.637 275.994M273.26 276.328C273.26 276.328 270.683 276.328 265.529 276.328C260.446 276.328 257.905 276.328 257.905 276.328M273.26 19.7065C275.166 20.1075 276.578 20.6421 277.496 21.3104M273.26 19.7065C273.26 19.7065 273.719 19.8179 274.637 20.0407C275.625 20.2189 276.578 20.6421 277.496 21.3104M273.26 19.7065C273.26 19.7065 268.389 19.7065 258.646 19.7065C260.411 20.6421 261.752 21.5332 262.67 22.3797M277.496 21.3104C278.484 21.9342 279.437 22.7584 280.355 23.7831C281.273 24.8523 282.191 26.1221 283.108 27.5923C283.956 29.0625 284.379 29.7977 284.379 29.7977C284.379 29.7977 284.803 30.711 285.65 32.5376C286.497 34.3197 287.309 36.28 288.086 38.4186C288.862 40.5125 289.639 42.807 290.415 45.3019C291.121 47.7523 291.827 50.3809 292.533 53.1877C293.239 55.9499 293.592 57.3311 293.592 57.3311C293.592 57.3311 293.91 58.8681 294.545 61.9422C295.181 65.0163 295.745 68.2018 296.24 71.4987C296.804 74.7956 297.334 78.2039 297.828 81.7235C298.322 85.1986 298.746 88.8073 299.099 92.5497C299.522 96.2921 299.734 98.1633 299.734 98.1633C299.734 98.1633 299.84 99.1435 300.052 101.104C300.193 103.064 300.334 105.024 300.476 106.985C300.617 108.99 300.758 110.994 300.899 112.999C301.04 115.049 301.146 117.098 301.217 119.148C301.358 121.197 301.429 122.222 301.429 122.222C301.429 122.222 301.464 123.291 301.534 125.429C301.605 127.523 301.676 129.64 301.746 131.778C301.817 133.961 301.887 136.122 301.958 138.261C301.958 140.399 301.958 142.56 301.958 144.743C301.958 146.926 301.958 149.109 301.958 151.292C301.958 153.475 301.958 155.636 301.958 157.774C301.887 159.913 301.817 162.074 301.746 164.257C301.676 166.395 301.605 168.512 301.534 170.606C301.464 172.744 301.429 173.813 301.429 173.813C301.429 173.813 301.358 174.838 301.217 176.887C301.146 178.937 301.04 180.986 300.899 183.036C300.758 185.041 300.617 187.045 300.476 189.05C300.334 191.011 300.193 192.971 300.052 194.931C299.84 196.891 299.734 197.872 299.734 197.872C299.734 197.872 299.522 199.743 299.099 203.485C298.746 207.228 298.322 210.836 297.828 214.311C297.334 217.831 296.804 221.239 296.24 224.536C295.745 227.833 295.181 231.019 294.545 234.093C293.91 237.167 293.592 238.704 293.592 238.704C293.592 238.704 293.239 240.085 292.533 242.847C291.827 245.654 291.121 248.283 290.415 250.733C289.639 253.228 288.862 255.522 288.086 257.616C287.309 259.755 286.497 261.715 285.65 263.497C284.803 265.324 284.379 266.237 284.379 266.237C284.379 266.237 283.956 266.972 283.108 268.443C282.191 269.913 281.273 271.183 280.355 272.252C279.437 273.277 278.484 274.101 277.496 274.725C276.578 275.393 275.625 275.816 274.637 275.994M262.67 22.3797C263.517 23.2262 264.4 24.2732 265.318 25.5206C266.165 26.7235 267.012 28.1269 267.859 29.7308C268.706 31.3347 269.13 32.1367 269.13 32.1367C269.13 32.1367 269.518 33.0945 270.295 35.0103C271.071 36.8815 271.813 38.9086 272.519 41.0917C273.225 43.2748 273.931 45.6138 274.637 48.1087C275.343 50.5591 276.013 53.1877 276.649 55.9945C277.284 58.7567 277.602 60.1379 277.602 60.1379C277.602 60.1379 277.884 61.6526 278.449 64.6822C279.014 67.7118 279.543 70.8304 280.037 74.0382C280.532 77.2905 281.026 80.632 281.52 84.0625C281.943 87.4485 282.332 90.9458 282.685 94.5546C283.038 98.1633 283.214 99.9677 283.214 99.9677C283.214 99.9677 283.32 100.926 283.532 102.841C283.673 104.713 283.814 106.628 283.956 108.589M262.67 22.3797C261.752 21.5332 260.835 20.8872 259.917 20.4417C259.07 19.9516 258.293 19.7065 257.587 19.7065C256.952 19.7065 256.634 19.7065 256.634 19.7065C256.634 19.7065 256.105 19.8179 255.046 20.0407C254.057 20.2189 252.998 20.6421 251.869 21.3104C250.81 21.9342 249.715 22.7584 248.586 23.7831C247.456 24.8523 246.291 26.1221 245.091 27.5923C243.891 29.0625 243.291 29.7977 243.291 29.7977C243.291 29.7977 242.691 30.711 241.491 32.5376C240.22 34.4088 239.02 36.4137 237.89 38.5522C236.69 40.6907 235.525 42.9852 234.396 45.4356C233.266 47.8859 232.172 50.47 231.113 53.1877C229.983 55.9054 229.418 57.2642 229.418 57.2642C229.418 57.2642 229.136 58.0216 228.571 59.5364C228.077 61.0512 227.548 62.5882 226.983 64.1476C226.489 65.7069 225.994 67.2885 225.5 68.8924C225.006 70.4963 224.547 72.1225 224.124 73.7709C223.629 75.4639 223.382 76.3104 223.382 76.3104C223.382 76.3104 223.17 77.1792 222.747 78.9167C222.253 80.6988 221.794 82.5032 221.37 84.3298C220.947 86.1119 220.558 87.9163 220.205 89.7429C219.782 91.5696 219.393 93.4185 219.04 95.2897C218.758 97.1609 218.617 98.0965 218.617 98.0965C218.617 98.0965 218.44 99.0767 218.087 101.037C217.734 103.042 217.417 105.047 217.134 107.052C216.852 109.056 216.57 111.061 216.287 113.066C216.075 115.071 215.864 117.098 215.652 119.148C215.44 121.152 215.334 122.155 215.334 122.155C215.334 122.155 215.263 123.224 215.122 125.363C214.91 127.546 214.734 129.706 214.593 131.845C214.522 134.028 214.452 136.189 214.381 138.327C214.31 140.466 214.24 142.627 214.169 144.81C214.169 146.948 214.169 149.087 214.169 151.225C214.24 153.408 214.31 155.569 214.381 157.708C214.452 159.846 214.522 162.007 214.593 164.19C214.734 166.329 214.91 168.489 215.122 170.672C215.263 172.811 215.334 173.88 215.334 173.88C215.334 173.88 215.44 174.883 215.652 176.887C215.864 178.937 216.075 180.964 216.287 182.969C216.57 184.974 216.852 186.979 217.134 188.983C217.417 190.988 217.734 192.993 218.087 194.998C218.44 196.958 218.617 197.938 218.617 197.938C218.617 197.938 218.758 198.874 219.04 200.745C219.393 202.616 219.782 204.465 220.205 206.292C220.558 208.119 220.947 209.923 221.37 211.705C221.794 213.532 222.253 215.336 222.747 217.118C223.17 218.856 223.382 219.725 223.382 219.725C223.382 219.725 223.629 220.571 224.124 222.264C224.547 223.913 225.006 225.539 225.5 227.143C225.994 228.746 226.489 230.328 226.983 231.887C227.548 233.447 228.077 234.984 228.571 236.499C229.136 238.013 229.418 238.771 229.418 238.771C229.418 238.771 229.983 240.13 231.113 242.847C232.172 245.565 233.266 248.149 234.396 250.599C235.525 253.05 236.69 255.344 237.89 257.483C239.02 259.621 240.22 261.626 241.491 263.497C242.691 265.324 243.291 266.237 243.291 266.237C243.291 266.237 243.891 266.972 245.091 268.443C246.291 269.913 247.456 271.183 248.586 272.252C249.715 273.277 250.81 274.101 251.869 274.725C252.998 275.393 254.057 275.816 255.046 275.994C256.105 276.217 256.846 276.328 257.269 276.328C257.693 276.328 257.905 276.328 257.905 276.328M283.956 108.589C284.097 110.504 284.203 112.42 284.273 114.336C284.414 116.296 284.556 118.256 284.697 120.217M283.956 108.589C284.097 110.504 284.238 112.42 284.379 114.336C284.45 116.296 284.556 118.256 284.697 120.217M284.697 120.217C284.767 122.222 284.803 123.224 284.803 123.224C284.803 123.224 284.838 124.249 284.909 126.298C284.979 128.348 285.05 130.397 285.12 132.446C285.191 134.496 285.226 136.568 285.226 138.661C285.297 140.711 285.332 142.783 285.332 144.877M285.332 144.877C285.332 146.971 285.332 149.064 285.332 151.158M285.332 144.877C285.332 146.971 285.332 148.017 285.332 148.017C285.332 149.042 285.332 150.089 285.332 151.158M285.332 151.158C285.332 153.252 285.297 155.324 285.226 157.373C285.226 159.467 285.191 161.539 285.12 163.589C285.05 165.638 284.979 167.687 284.909 169.737C284.838 171.786 284.803 172.811 284.803 172.811C284.803 172.811 284.732 173.791 284.591 175.751C284.52 177.756 284.414 179.717 284.273 181.632C284.132 183.593 283.991 185.531 283.85 187.446C283.708 189.362 283.567 191.278 283.426 193.194C283.214 195.109 283.108 196.067 283.108 196.067C283.108 196.067 282.932 197.849 282.579 201.414C282.155 205.022 281.732 208.542 281.308 211.972C280.814 215.403 280.32 218.722 279.826 221.93C279.261 225.138 278.696 228.279 278.131 231.353C277.496 234.382 277.178 235.897 277.178 235.897C277.178 235.897 276.86 237.278 276.225 240.04C275.59 242.803 274.919 245.431 274.213 247.926C273.507 250.421 272.766 252.76 271.989 254.943C271.213 257.126 270.436 259.153 269.659 261.025C268.883 262.94 268.495 263.898 268.495 263.898C268.495 263.898 268.071 264.7 267.224 266.304C266.377 267.908 265.494 269.311 264.576 270.514C263.729 271.762 262.847 272.809 261.929 273.655C261.082 274.502 260.199 275.148 259.281 275.593C258.364 276.083 257.905 276.328 257.905 276.328" stroke="white" stroke-width="6" stroke-miterlimit="1.5" stroke-linecap="round" stroke-linejoin="round"/>
<path d="M368.546 128.299C351.254 120.082 333.962 111.865 316.67 103.649C282.085 87.2152 264.793 78.9985 264.793 78.9985C264.793 78.9985 248.324 78.9985 215.387 78.9985C198.918 78.9985 182.449 78.9985 165.98 78.9985M368.546 128.299C368.546 128.299 368.162 127.203 367.393 125.012C367.009 123.916 366.597 122.821 366.158 121.725M368.546 128.299C368.546 128.299 367.448 128.682 365.252 129.449C364.154 129.832 363.057 130.216 361.959 130.599" stroke="#DEDDDC" stroke-width="5" stroke-miterlimit="1.5" stroke-linecap="round" stroke-linejoin="round"/>
<path d="M363.613 148.017C347.144 148.017 330.675 148.017 314.207 148.017C281.269 148.017 264.8 148.017 264.8 148.017C264.8 148.017 248.332 148.017 215.394 148.017C198.98 148.017 182.539 148.017 166.07 148.017M363.613 148.017C363.613 148.017 362.79 147.196 361.143 145.552C360.319 144.731 359.496 143.909 358.672 143.087M363.613 148.017C363.613 148.017 362.79 148.839 361.143 150.482C360.319 151.304 359.496 152.126 358.672 152.947" stroke="#DEDDDC" stroke-width="5" stroke-miterlimit="1.5" stroke-linecap="round" stroke-linejoin="round"/>
<path d="M368.546 167.734C351.254 175.951 333.962 184.168 316.67 192.384C282.085 208.818 264.793 217.034 264.793 217.034C264.793 217.034 248.324 217.034 215.387 217.034C198.918 217.034 182.449 217.034 165.98 217.034M368.546 167.734C368.546 167.734 367.448 167.351 365.252 166.584C364.154 166.2 363.057 165.817 361.959 165.434M368.546 167.734C368.546 167.734 368.162 168.83 367.393 171.021C367.009 172.116 366.625 173.212 366.24 174.308" stroke="#DEDDDC" stroke-width="5" stroke-miterlimit="1.5" stroke-linecap="round" stroke-linejoin="round"/>
<path d="M32.7998 217.038H95.9872" stroke="#F0EFEE" stroke-width="8.32545" stroke-miterlimit="1.5" stroke-linecap="round" stroke-linejoin="round"/>
<path d="M57.2871 148.018H95.9887" stroke="#F0EFEE" stroke-width="8.32545" stroke-miterlimit="1.5" stroke-linecap="round" stroke-linejoin="round"/>
<path d="M20.9729 78.9985H95.9881" stroke="#F0EFEE" stroke-width="8.32545" stroke-miterlimit="1.5" stroke-linecap="round" stroke-linejoin="round"/>
<path d="M136.336 236.758C147.25 236.758 156.098 227.929 156.098 217.038C156.098 206.147 147.25 197.318 136.336 197.318C125.421 197.318 116.573 206.147 116.573 217.038C116.573 227.929 125.421 236.758 136.336 236.758Z" fill="#E8E7E6"/>
<path d="M136.336 98.7173C147.25 98.7173 156.098 89.8884 156.098 78.9973C156.098 68.1063 147.25 59.2773 136.336 59.2773C125.421 59.2773 116.573 68.1063 116.573 78.9973C116.573 89.8884 125.421 98.7173 136.336 98.7173Z" fill="#E9E8E7"/>
<path d="M136.336 167.738C147.25 167.738 156.098 158.909 156.098 148.018C156.098 137.127 147.25 128.298 136.336 128.298C125.421 128.298 116.573 137.127 116.573 148.018C116.573 158.909 125.421 167.738 136.336 167.738Z" fill="#EEEDEC"/>
<path opacity="0.7" d="M403.13 167.738C414.044 167.738 422.892 158.909 422.892 148.018C422.892 137.127 414.044 128.298 403.13 128.298C392.215 128.298 383.367 137.127 383.367 148.018C383.367 158.909 392.215 167.738 403.13 167.738Z" fill="#EEEDEC"/>
<path d="M437.869 148.48C437.869 145.417 440.352 142.934 443.415 142.934L483.721 142.934C486.784 142.934 489.267 145.417 489.267 148.48V148.48C489.267 151.543 486.784 154.026 483.721 154.026H443.415C440.352 154.026 437.869 151.543 437.869 148.48V148.48Z" fill="#F0EFEE"/>
</g>
</svg>
